P2
8 8
255
255 216 180 144 108  72  36   0
  0 255 216 180 144 108  72  36
 36   0 255 216 180 144 108  72
 72  36   0 255 216 180 144 108
108  72  36   0 255 216 180 144
144 108  72  36   0 255 216 180
180 144 108  72  36   0 255 216
216 180 144 108  72  36   0 255 