P2
8 8
255
  0  36  72 108 144 180 216 255
 36  72 108 144 180 216 255   0
 72 108 144 180 216 255   0  36
108 144 180 216 255   0  36  72
144 180 216 255   0  36  72 108
180 216 255   0  36  72 108 144
216 255   0  36  72 108 144 180
255   0  36  72 108 144 180 216 